<svg id="Capa_1" enable-background="new 0 0 512 512" height="512" viewBox="0 0 512 512" width="512" xmlns="http://www.w3.org/2000/svg"><g><g><circle cx="256.002" cy="266.982" fill="#ffeccf" r="208.415"/></g><g><path d="m394.721 111.454c32.887 36.847 52.887 85.444 52.887 138.719 0 115.105-93.311 208.415-208.415 208.415-53.275 0-101.872-20-138.719-52.887 38.168 42.763 93.699 69.697 155.529 69.697 115.105 0 208.415-93.311 208.415-208.415-.001-61.83-26.934-117.361-69.697-155.529z" fill="#fdd8a3"/></g><g><path d="m301.303 317.644h-82.032c-6.858 0-12.417-5.559-12.417-12.417v-66.058h106.866v66.058c0 6.858-5.56 12.417-12.417 12.417z" fill="#ffa68d"/></g><g><path d="m294.072 239.169v66.107c0 6.831-5.537 12.368-12.368 12.368h19.647c6.831 0 12.368-5.537 12.368-12.368v-66.107z" fill="#f59380"/></g><g><g><path d="m363.605 382.584c.007-9.015-7.294-16.328-16.309-16.336l-216.08-.207-.027 32.645 216.08.207c9.015.008 16.329-7.294 16.336-16.309z" fill="#fba615"/></g><g><path d="m131.201 383.943 208.068.2c8.785.007 15.951-6.928 16.318-15.624 4.803 2.845 8.023 8.078 8.018 14.064-.007 9.015-7.321 16.316-16.336 16.309l-216.08-.207z" fill="#f88604"/></g><g><path d="m148.697 382.378c-.033 40.854 11.585 78.994 31.715 111.284 1.105 1.772-.94 3.809-2.709 2.7-37.913-23.778-63.106-65.959-63.067-114.012s25.301-90.192 63.252-113.909c1.771-1.106 3.812.935 2.704 2.704-20.181 32.258-31.862 70.38-31.895 111.233z" fill="#b1abb5"/></g><g><path d="m177.888 268.442c-13.644 8.526-25.635 19.444-35.417 32.152-6.945 28.609-8.556 59.018-3.867 89.926 5.396 35.565 18.566 68.021 37.51 95.92-17.473-30.696-27.449-66.212-27.418-104.06.033-40.853 11.714-78.975 31.896-111.232 1.108-1.772-.933-3.813-2.704-2.706z" fill="#786e79"/></g><g><path d="m168.988 401.818.032-38.846c.003-3.866-3.128-7.003-6.994-7.006l-49.75-.04c-3.866-.003-7.003 3.128-7.006 6.994l-.032 38.846c-.003 3.866 3.128 7.003 6.994 7.006l49.75.04c3.867.003 7.003-3.128 7.006-6.994z" fill="#786e79"/></g><g><path d="m105.246 392.941 41.389.034c3.61.003 6.538-2.921 6.541-6.531l.025-30.485 8.853.007c3.851.003 6.97 3.127 6.967 6.978l-.032 38.901c-.003 3.851-3.127 6.97-6.978 6.967l-49.805-.041c-3.851-.003-6.97-3.127-6.967-6.978z" fill="#453e43"/></g></g><g><path d="m341.367 156.04c-.511-.038-1.006-.048-1.493-.045v-26.426c0-14.535-11.783-26.318-26.319-26.318h-105.437c-14.535 0-26.318 11.783-26.318 26.318v26.466c-.83-.057-1.692-.061-2.593.005-12.889.949-22.857 8.245-21.731 23.537 1.102 14.97 12.429 32.042 24.997 31.864 5.063 38.767 38.217 68.702 78.365 68.702 40.158 0 73.318-29.95 78.369-68.732 12.121-.796 22.823-17.305 23.893-31.835 1.125-15.291-8.843-22.587-21.733-23.536z" fill="#ffa68d"/></g><g><path d="m341.367 156.04c-.511-.038-1.006-.048-1.493-.045v-26.426c0-14.535-11.783-26.318-26.319-26.318h-3.827c.93 2.693 1.441 5.58 1.441 8.589v71.537c0 43.651-35.386 79.037-79.037 79.037-9.18 0-17.992-1.57-26.189-4.448 14.218 13.729 33.568 22.178 54.893 22.178 40.158 0 73.318-29.95 78.369-68.732 12.121-.796 22.823-17.305 23.893-31.835 1.127-15.292-8.841-22.588-21.731-23.537z" fill="#f59380"/></g><g><path d="m266.145 15.324h-11.716c-45.046 0-81.562 36.517-81.562 81.562v24.241h174.841v-24.24c-.001-45.046-36.518-81.563-81.563-81.563z" fill="#fba615"/></g><g><path d="m305.115 25.091c6.228 11.494 9.766 24.657 9.766 38.648 0 13.566-10.997 24.563-24.563 24.563h-117.036c-.274 2.717-.416 5.473-.416 8.263v24.563h174.841v-24.563c0-30.877-17.227-57.729-42.592-71.474z" fill="#f88604"/></g><g><circle cx="260.287" cy="77.876" fill="#fdf3c4" r="33.341"/></g><g><path d="m276.572 48.785c2.703 4.817 4.25 10.369 4.25 16.285 0 18.414-14.927 33.341-33.341 33.341-5.916 0-11.468-1.548-16.285-4.25 5.709 10.175 16.593 17.055 29.091 17.055 18.414 0 33.341-14.927 33.341-33.341 0-12.496-6.881-23.381-17.056-29.09z" fill="#fcdd2e"/></g><g><path d="m163.299 118.924c0 2.447 1.193 4.747 3.211 6.132 23.184 15.903 56.609 25.889 93.776 25.889s70.592-9.986 93.776-25.889c2.018-1.384 3.211-3.684 3.211-6.132 0-4.112-3.333-7.445-7.445-7.445h-179.084c-4.111 0-7.445 3.333-7.445 7.445z" fill="#fba615"/></g><g><path d="m349.829 111.479h-19.564c-25.765 17.279-62.514 28.092-103.319 28.092-14.428 0-28.347-1.355-41.455-3.866 20.964 9.581 46.819 15.24 74.796 15.24 37.167 0 70.592-9.986 93.776-25.889 2.018-1.384 3.211-3.684 3.211-6.132 0-4.112-3.333-7.445-7.445-7.445z" fill="#f88604"/></g><g><path d="m461.172 318.208h-42.017c-6.858 0-12.417-5.559-12.417-12.417v-36.674h66.851v36.674c0 6.858-5.559 12.417-12.417 12.417z" fill="#b95e4b"/></g><g><path d="m92.849 318.208h-42.017c-6.858 0-12.417-5.559-12.417-12.417v-36.674h66.851v36.674c0 6.858-5.559 12.417-12.417 12.417z" fill="#ffcbbe"/></g><g><path d="m460.225 269.117v36.723c0 6.831-5.537 12.368-12.368 12.368h13.364c6.831 0 12.368-5.537 12.368-12.368v-36.723z" fill="#a24e3d"/></g><g><path d="m91.903 269.117v36.723c0 6.831-5.537 12.368-12.368 12.368h13.364c6.831 0 12.368-5.537 12.368-12.368v-36.723z" fill="#fdad9d"/></g><g><path d="m490.884 214.255c-.319-.024-.629-.03-.934-.028v-16.531c0-9.093-7.371-16.464-16.464-16.464h-65.957c-9.093 0-16.464 7.371-16.464 16.464v16.556c-.519-.036-1.058-.038-1.622.003-8.063.594-14.299 5.158-13.594 14.724.69 9.365 7.775 20.044 15.637 19.933 3.167 24.251 23.907 42.977 49.022 42.977 25.121 0 45.865-18.736 49.024-42.996 7.582-.498 14.277-10.825 14.947-19.915.704-9.566-5.532-14.13-13.595-14.723z" fill="#b95e4b"/></g><g><path d="m490.884 214.255c-.319-.024-.629-.03-.934-.028v-16.531c0-9.093-7.371-16.464-16.464-16.464h-2.394c.582 1.684.902 3.491.902 5.373v44.751c0 27.306-22.136 49.442-49.443 49.442-5.743 0-11.255-.982-16.383-2.783 8.894 8.588 20.999 13.874 34.339 13.874 25.121 0 45.865-18.736 49.024-42.996 7.582-.498 14.277-10.825 14.947-19.915.705-9.566-5.531-14.13-13.594-14.723z" fill="#a24e3d"/></g><g><path d="m443.828 126.229h-7.329c-28.179 0-51.022 22.843-51.022 51.022v15.164h109.373v-15.164c0-28.179-22.843-51.022-51.022-51.022z" fill="#fba615"/></g><g><path d="m122.561 214.255c-.32-.024-.629-.03-.934-.028v-16.531c0-9.093-7.371-16.464-16.464-16.464h-65.957c-9.093 0-16.464 7.371-16.464 16.464v16.556c-.519-.036-1.058-.038-1.622.003-8.063.594-14.299 5.158-13.594 14.724.69 9.365 7.775 20.044 15.637 19.933 3.167 24.251 23.907 42.977 49.022 42.977 25.121 0 45.865-18.736 49.024-42.996 7.582-.498 14.277-10.825 14.947-19.915.704-9.566-5.531-14.13-13.595-14.723z" fill="#ffcbbe"/></g><g><path d="m122.561 214.255c-.32-.024-.629-.03-.934-.028v-16.531c0-9.093-7.371-16.464-16.464-16.464h-2.394c.581 1.684.902 3.491.902 5.373v44.751c0 27.306-22.136 49.442-49.443 49.442-5.743 0-11.255-.982-16.383-2.783 8.894 8.588 20.999 13.874 34.339 13.874 25.121 0 45.865-18.736 49.024-42.996 7.582-.498 14.277-10.825 14.947-19.915.705-9.566-5.53-14.13-13.594-14.723z" fill="#fdad9d"/></g><g><path d="m75.505 126.229h-7.329c-28.179 0-51.022 22.843-51.022 51.022v15.164h109.373v-15.164c0-28.179-22.843-51.022-51.022-51.022z" fill="#fba615"/></g><g><path d="m468.991 132.786c4.168 7.374 6.558 15.887 6.558 24.962 0 8.486-6.879 15.366-15.366 15.366h-74.54c-.1 1.3-.167 2.61-.167 3.935v15.366h109.374v-15.366c0-18.992-10.425-35.54-25.859-44.263z" fill="#f88604"/></g><g><path d="m100.668 132.786c4.168 7.374 6.558 15.887 6.558 24.962 0 8.486-6.879 15.366-15.366 15.366h-74.54c-.1 1.3-.167 2.61-.167 3.935v15.366h109.373v-15.366c.001-18.992-10.424-35.54-25.858-44.263z" fill="#f88604"/></g><g><circle cx="71.841" cy="165.358" fill="#fdf3c4" r="20.857"/></g><g><path d="m82.028 147.16c1.691 3.013 2.659 6.487 2.659 10.188 0 11.519-9.338 20.857-20.857 20.857-3.701 0-7.174-.968-10.188-2.659 3.571 6.365 10.38 10.669 18.198 10.669 11.519 0 20.857-9.338 20.857-20.857 0-7.818-4.304-14.627-10.669-18.198z" fill="#fcdd2e"/></g><g><circle cx="440.163" cy="165.358" fill="#fdf3c4" r="20.857"/></g><g><path d="m450.351 147.16c1.691 3.013 2.659 6.487 2.659 10.188 0 11.519-9.338 20.857-20.857 20.857-3.701 0-7.174-.968-10.188-2.659 3.571 6.365 10.38 10.669 18.198 10.669 11.519 0 20.857-9.338 20.857-20.857 0-7.818-4.304-14.627-10.669-18.198z" fill="#fcdd2e"/></g><g><path d="m379.492 191.036c0 1.531.746 2.97 2.009 3.836 14.503 9.949 35.412 16.195 58.663 16.195 23.25 0 44.16-6.247 58.663-16.195 1.262-.866 2.009-2.305 2.009-3.836 0-2.572-2.085-4.657-4.657-4.657h-112.03c-2.572 0-4.657 2.085-4.657 4.657z" fill="#fba615"/></g><g><path d="m496.177 186.379h-12.238c-16.117 10.809-39.106 17.573-64.632 17.573-9.025 0-17.732-.848-25.932-2.419 13.115 5.993 29.288 9.534 46.789 9.534 23.25 0 44.16-6.247 58.663-16.195 1.263-.866 2.009-2.305 2.009-3.836-.001-2.572-2.086-4.657-4.659-4.657z" fill="#f88604"/></g><g><path d="m11.169 191.036c0 1.531.746 2.97 2.009 3.836 14.503 9.949 35.412 16.195 58.663 16.195s44.16-6.247 58.663-16.195c1.262-.866 2.009-2.305 2.009-3.836 0-2.572-2.085-4.657-4.657-4.657h-112.029c-2.573 0-4.658 2.085-4.658 4.657z" fill="#fba615"/></g><g><path d="m127.855 186.379h-12.238c-16.117 10.809-39.106 17.573-64.632 17.573-9.025 0-17.732-.848-25.932-2.419 13.115 5.993 29.288 9.534 46.789 9.534 23.25 0 44.16-6.247 58.663-16.195 1.262-.866 2.009-2.305 2.009-3.836-.002-2.572-2.087-4.657-4.659-4.657z" fill="#f88604"/></g><g><path d="m283.378 217.78h-47.026c-4.126 0-7.47 3.345-7.47 7.47s3.345 7.47 7.47 7.47h47.026c4.126 0 7.47-3.345 7.47-7.47s-3.344-7.47-7.47-7.47z"/><circle cx="224.275" cy="179.153" r="11.206"/><circle cx="296.298" cy="179.153" r="11.206"/><path d="m497.421 207.895v-3.346c1.94-1.114 3.826-2.279 5.63-3.517 3.291-2.256 5.255-5.993 5.255-9.997 0-4.444-2.41-8.327-5.985-10.439v-3.548c0-32.142-26.149-58.291-58.291-58.291h-7.732c-7.043 0-13.797 1.256-20.052 3.555-18.22-20.19-39.75-36.531-64.071-48.649-10.123-37.851-44.709-65.809-85.708-65.809h-12.36c-39.304 0-72.714 25.696-84.328 61.168-27.972 12.204-53.448 30.563-74.001 53.298-6.26-2.303-13.021-3.562-20.071-3.562h-7.732c-32.142 0-58.291 26.149-58.291 58.291v3.548c-3.575 2.112-5.985 5.995-5.985 10.439 0 4.004 1.964 7.741 5.254 9.996 2.02 1.385 4.13 2.692 6.319 3.923v2.732c-3.721 1.002-6.93 2.763-9.445 5.21-2.97 2.888-6.378 8.118-5.751 16.63.772 10.481 7.411 21.857 16.616 25.592 2.315 10.169 7.352 19.243 14.253 26.491v24.231c0 10.043 7.508 18.347 17.203 19.642 11.562 41.191 34.894 77.651 67.618 105.631 10.766 29.337 31.193 54.785 57.968 71.578 1.558.977 3.299 1.455 5.026 1.455 2.425 0 4.823-.942 6.651-2.764 3.128-3.12 3.68-7.92 1.34-11.672-14.104-22.624-23.42-47.295-27.778-73.43l3.031.002h.013c3.853 0 7.476-1.499 10.203-4.222 1.67-1.667 2.876-3.673 3.566-5.861l117.835.113h.007c4.122 0 7.467-3.34 7.47-7.463.004-4.126-3.337-7.474-7.464-7.478l-117.167-.112.014-17.704 170.808.163c2.365.002 4.587.925 6.257 2.598 1.67 1.674 2.589 3.897 2.587 6.261-.004 4.879-3.974 8.845-8.849 8.845-.002 0-.005 0-.007 0l-18.248-.023c-.004 0-.007 0-.01 0-4.121 0-7.466 3.338-7.47 7.461-.005 4.126 3.335 7.475 7.461 7.48l18.252.023h.019c13.109 0 23.781-10.661 23.792-23.773.006-6.355-2.465-12.333-6.955-16.83-4.49-4.498-10.463-6.977-16.818-6.983l-171.474-.164c-.686-2.194-1.89-4.206-3.56-5.879-2.726-2.73-6.351-4.236-10.21-4.239l-3.031-.002c4.399-26.125 13.754-50.78 27.897-73.384 2.345-3.748 1.802-8.549-1.321-11.674-3.124-3.125-7.925-3.671-11.674-1.328-31.263 19.536-53.9 50.842-62.66 86.398-7.504.504-13.463 6.751-13.47 14.381l-.023 28.031c-15.243-19.398-26.761-41.43-34.008-65.239h29.129c10.939 0 19.838-8.899 19.838-19.838v-23.516c7.33-7.437 12.659-16.89 15.014-27.528 8.866-4.045 15.109-15.13 15.856-25.268.779-10.58-4.885-18.708-14.509-21.632v-3.345c1.94-1.114 3.826-2.279 5.631-3.517 3.29-2.256 5.255-5.993 5.255-9.997 0-4.444-2.41-8.327-5.985-10.439v-3.548c0-19.581-9.715-36.924-24.567-47.499 16.173-17.22 35.41-31.602 56.441-42.197-.314 3.029-.477 6.102-.477 9.212v8.452c-5.586 2.157-9.567 7.57-9.567 13.907 0 4.925 2.414 9.52 6.455 12.292 3.786 2.597 7.814 5.025 12.045 7.28v10.63c-6.642 1.174-12.273 3.884-16.453 7.949-4.065 3.954-8.727 11.162-7.852 23.051 1.181 16.046 12.02 33.605 25.949 37.833 3.368 17.043 11.741 32.174 23.422 43.951-.003.081-.012.16-.012.242v43.124c0 10.939 8.899 19.838 19.838 19.838h82.13c10.939 0 19.838-8.899 19.838-19.838v-42.269c12.34-12.009 21.16-27.692 24.582-45.417 13.59-4.856 23.653-22.211 24.776-37.464.875-11.888-3.786-19.097-7.851-23.051-3.948-3.84-9.19-6.47-15.353-7.739v-11.438c3.828-2.087 7.488-4.313 10.944-6.684 4.043-2.772 6.456-7.367 6.456-12.292 0-6.337-3.98-11.75-9.567-13.907v-8.452c0-1.49-.038-2.971-.111-4.444 17.66 10.006 33.581 22.543 47.516 37.422-14.857 10.575-24.576 27.921-24.576 47.506v3.548c-3.574 2.112-5.984 5.994-5.984 10.438 0 4.004 1.964 7.741 5.254 9.996 2.02 1.385 4.13 2.692 6.319 3.923v2.742c-10.04 2.739-15.993 11-15.196 21.831.771 10.481 7.411 21.857 16.616 25.592 2.315 10.169 7.352 19.243 14.253 26.491v24.231c0 10.939 8.899 19.838 19.838 19.838h29.132c-25.615 84.147-103.55 142.249-192.236 142.249-17.448 0-34.763-2.237-51.466-6.649-3.989-1.057-8.077 1.325-9.131 5.314-1.053 3.989 1.326 8.077 5.315 9.131 17.947 4.741 36.547 7.145 55.282 7.145 96.868 0 181.796-64.528 207.857-157.386 9.694-1.297 17.201-9.599 17.201-19.642v-23.517c7.329-7.437 12.659-16.89 15.014-27.528 8.865-4.045 15.108-15.13 15.855-25.268.784-10.581-4.879-18.709-14.503-21.633zm-438.967-42.537c0-7.381 6.005-13.386 13.386-13.386s13.386 6.005 13.386 13.386-6.005 13.386-13.386 13.386-13.386-6.005-13.386-13.386zm58.952 28.491c-12.821 6.259-28.884 9.748-45.566 9.748s-32.744-3.489-45.565-9.748zm43.973 280.361c-16.501-15.802-28.593-35.896-34.697-57.956l17.149.014c3.129 20.19 8.999 39.582 17.548 57.942zm.139-72.869-48.809-.039.031-37.905 48.809.039zm.01-110.774c-8.579 18.347-14.48 37.729-17.642 57.914l-17.15-.014c6.141-22.052 18.264-42.125 34.792-57.9zm-63.732 15.273c0 2.701-2.197 4.898-4.898 4.898h-42.115c-2.701 0-4.898-2.197-4.898-4.898v-12.961c7.91 4.141 16.87 6.481 26.299 6.481 9.156 0 17.872-2.2 25.611-6.117v12.597zm18.565-86.314c.844.867 2.952 2.072 5.651 2.179 7.149.526 6.852 4.559 6.693 6.724-.493 6.682-5.326 12.835-7.987 13.01-3.56.234-6.457 2.952-6.918 6.49-2.709 20.802-20.6 36.49-41.616 36.49-21.008 0-38.899-15.681-41.614-36.474-.486-3.725-3.661-6.503-7.406-6.503-.043 0-.085.001-.129.001-2.62 0-7.572-6.398-8.059-13.013.105-5.412 1.519-5.967 7.249-6.725 3.209.153 7.682-2.148 7.987-7.452v-2.556c12.562 4.467 26.757 6.842 41.629 6.842 15.143 0 29.587-2.458 42.316-7.084v2.773c0 1.988.793 3.895 2.204 5.298zm2.696-42.477v1.859h-22.348c2.203-4.027 3.458-8.644 3.458-13.55 0-15.62-12.707-28.327-28.327-28.327s-28.327 12.707-28.327 28.327c0 4.905 1.254 9.522 3.457 13.55h-22.345v-1.859c0-23.903 19.447-43.35 43.35-43.35h7.732c23.903 0 43.35 19.447 43.35 43.35zm135.05-154.254h12.36c40.677 0 73.77 33.093 73.77 73.77v7.444h-48.648c5.926-7.086 9.51-16.195 9.51-26.133 0-4.126-3.344-7.47-7.47-7.47s-7.47 3.345-7.47 7.47c0 14.265-11.605 25.871-25.87 25.871s-25.871-11.605-25.871-25.871c0-14.265 11.605-25.87 25.871-25.87 4.645 0 9.197 1.243 13.164 3.594 3.55 2.103 8.132.932 10.236-2.618 2.103-3.549.931-8.132-2.618-10.235-6.272-3.717-13.458-5.682-20.782-5.682-22.504 0-40.811 18.308-40.811 40.811 0 9.934 3.57 19.048 9.492 26.133h-48.631v-7.444c-.003-40.677 33.09-73.77 73.768-73.77zm52.142 282.481c0 2.701-2.197 4.898-4.898 4.898h-82.13c-2.701 0-4.898-2.197-4.898-4.898v-31.297c13.514 8.646 29.515 13.636 46.512 13.636 16.541 0 32.134-4.729 45.413-12.949v30.61zm28.359-143.982c.911.966 3.402 2.248 6.211 2.197 8.467.818 15.661 4.544 14.83 15.538-.857 11.631-9.56 24.445-16.932 24.929-3.56.234-6.458 2.952-6.919 6.489-4.619 35.475-35.126 62.226-70.961 62.226-35.821 0-66.326-26.74-70.957-62.199-.487-3.725-3.661-6.503-7.406-6.503-.066 0-.131.001-.196.001-7.414 0-16.472-12.998-17.352-24.944-.364-4.934.769-8.716 3.368-11.244 2.511-2.442 6.474-3.927 11.46-4.295 3.559.363 9.334-1.347 9.517-7.456v-10.633c21.108 8.405 45.745 13.013 71.017 13.013 25.712 0 50.767-4.77 72.117-13.456v11.036c-.001 1.992.791 3.898 2.203 5.301zm-74.321-17.82c-34.127 0-66.756-8.952-89.491-24.525l179.042-.054c-22.773 15.621-55.413 24.579-89.551 24.579zm134.312 50.375h91.13c-12.82 6.259-28.884 9.748-45.566 9.748-16.681 0-32.743-3.489-45.564-9.748zm32.178-28.491c0-7.381 6.005-13.386 13.386-13.386s13.386 6.005 13.386 13.386-6.006 13.386-13.386 13.386-13.386-6.005-13.386-13.386zm9.521-31.659h7.732c23.903 0 43.35 19.447 43.35 43.35v1.859h-22.356c2.205-4.028 3.466-8.643 3.466-13.55 0-15.62-12.707-28.327-28.327-28.327s-28.327 12.707-28.327 28.327c0 4.905 1.254 9.522 3.457 13.55h-22.346v-1.859c0-23.903 19.447-43.35 43.351-43.35zm29.821 172.141c0 2.701-2.197 4.898-4.898 4.898h-42.115c-2.7 0-4.898-2.197-4.898-4.898v-12.962c7.91 4.141 16.87 6.481 26.299 6.481 9.156 0 17.873-2.2 25.611-6.117v12.598zm30.91-77.411c-.493 6.682-5.327 12.835-7.986 13.01-3.56.234-6.458 2.952-6.919 6.489-2.709 20.803-20.6 36.49-41.616 36.49-21.009 0-38.899-15.681-41.614-36.474-.486-3.725-3.66-6.503-7.405-6.503-.044 0-.091.002-.129.001-2.62 0-7.573-6.398-8.06-13.012-.349-2.22.338-6.416 7.25-6.726 3.215.151 7.679-2.147 7.987-7.452v-2.556c12.562 4.467 26.756 6.842 41.628 6.842 15.143 0 29.588-2.458 42.317-7.084v2.773c.052 3.184 2.673 7.463 7.856 7.478 7.147.526 6.85 4.559 6.691 6.724z"/><path d="m447.518 250.202h-14.709c-4.126 0-7.47 3.345-7.47 7.47 0 4.126 3.344 7.47 7.47 7.47h14.709c4.126 0 7.47-3.345 7.47-7.47s-3.344-7.47-7.47-7.47z"/><circle cx="417.636" cy="228.836" r="7.01"/><circle cx="462.691" cy="228.836" r="7.01"/><circle cx="49.313" cy="228.836" r="7.01"/><circle cx="94.368" cy="228.836" r="7.01"/><path d="m78.514 250.202h-14.709c-4.126 0-7.47 3.345-7.47 7.47 0 4.126 3.345 7.47 7.47 7.47h14.709c4.126 0 7.47-3.345 7.47-7.47s-3.345-7.47-7.47-7.47z"/></g></g></svg>